<svg xmlns="http://www.w3.org/2000/svg" version="1.1" xmlns:xlink="http://www.w3.org/1999/xlink" width="512" height="512" x="0" y="0" viewBox="0 0 32 32" style="enable-background:new 0 0 512 512" xml:space="preserve" class=""><g><g fill="#000"><path d="M17 16h3a1 1 0 1 1 0 2h-3v3a1 1 0 1 1-2 0v-3h-3a1 1 0 1 1 0-2h3v-3a1 1 0 1 1 2 0z" fill="#154481" opacity="1" data-original="#000000"></path><path fill-rule="evenodd" d="M12.008 2H24a3 3 0 0 1 3 3v22a3 3 0 0 1-3 3H8a3 3 0 0 1-3-3V9a1 1 0 0 1 .293-.707l6-6A.999.999 0 0 1 12.008 2zM7 10v17a1 1 0 0 0 1 1h16a1 1 0 0 0 1-1V5a1 1 0 0 0-1-1H13v3a3 3 0 0 1-3 3zm3-2H8.414L11 5.414V7a1 1 0 0 1-1 1z" clip-rule="evenodd" fill="#154481" opacity="1" data-original="#000000"></path></g></g></svg>