<svg xmlns="http://www.w3.org/2000/svg" width="37.295" height="37.292" viewBox="0 0 37.295 37.292">
  <g id="Hyperlink" transform="translate(-0.047 -0.046)">
    <path id="Trazado_4101" data-name="Trazado 4101" d="M212.856,23.948a7.26,7.26,0,0,1-5.15-2.13,1.457,1.457,0,0,1,2.06-2.06,4.375,4.375,0,0,0,6.18,0l9.343-9.343a4.37,4.37,0,1,0-6.18-6.18l-7.283,7.283a1.457,1.457,0,1,1-2.06-2.06l7.283-7.283a7.283,7.283,0,1,1,10.3,10.3l-9.343,9.343A7.26,7.26,0,0,1,212.856,23.948Z" transform="translate(-192.139 0)" fill="#072142"/>
    <path id="Trazado_4102" data-name="Trazado 4102" d="M7.327,208.724a7.28,7.28,0,0,1-5.15-12.43l9.27-9.27a7.291,7.291,0,0,1,10.3,0,1.457,1.457,0,1,1-2.06,2.06,4.375,4.375,0,0,0-6.18,0l-9.27,9.27a4.37,4.37,0,1,0,6.18,6.18l7.21-7.21a1.457,1.457,0,1,1,2.06,2.06l-7.21,7.21A7.26,7.26,0,0,1,7.327,208.724Z" transform="translate(0 -171.386)" fill="#072142"/>
    <path id="Línea_202" data-name="Línea 202" d="M-15.908-15.86A1.451,1.451,0,0,1-16.523-16l-2.64-1.231a1.457,1.457,0,0,1-.7-1.936,1.457,1.457,0,0,1,1.936-.7l2.64,1.231a1.457,1.457,0,0,1,.7,1.936A1.457,1.457,0,0,1-15.908-15.86Z" transform="translate(24.003 31.121)" fill="#072142"/>
    <path id="Línea_203" data-name="Línea 203" d="M-15.908-15.86A1.451,1.451,0,0,1-16.523-16l-2.64-1.231a1.457,1.457,0,0,1-.7-1.936,1.457,1.457,0,0,1,1.936-.7l2.64,1.231a1.457,1.457,0,0,1,.7,1.936A1.457,1.457,0,0,1-15.908-15.86Z" transform="translate(47.766 42.201)" fill="#072142"/>
    <path id="Línea_204" data-name="Línea 204" d="M-17.316-14.451a1.457,1.457,0,0,1-1.321-.841l-1.231-2.64a1.457,1.457,0,0,1,.7-1.936,1.457,1.457,0,0,1,1.936.7L-16-16.523a1.457,1.457,0,0,1-.7,1.936A1.451,1.451,0,0,1-17.316-14.451Z" transform="translate(31.049 24.075)" fill="#072142"/>
    <path id="Línea_205" data-name="Línea 205" d="M-17.316-14.451a1.457,1.457,0,0,1-1.321-.841l-1.231-2.64a1.457,1.457,0,0,1,.7-1.936,1.457,1.457,0,0,1,1.936.7L-16-16.523a1.457,1.457,0,0,1-.7,1.936A1.451,1.451,0,0,1-17.316-14.451Z" transform="translate(42.129 47.838)" fill="#072142"/>
  </g>
</svg>
