<svg xmlns="http://www.w3.org/2000/svg" width="47.678" height="73.586" viewBox="0 0 47.678 73.586">
  <path id="Trazado_3367" data-name="Trazado 3367" d="M40.668,73.566V33.777a17.726,17.726,0,0,0-1.849-6.328c-2.111-4.035-5.487-5.965-10.335-5.965H17.052a25.743,25.743,0,0,1,4.707,10.759,3.505,3.505,0,1,1-6.906,1.21,21.2,21.2,0,0,0-2.448-6.314c-2.205-3.672-5.07-5.454-8.742-5.454a3.51,3.51,0,1,1,0-7.014c8.97,0,11.122-11.27,11.21-11.768A3.51,3.51,0,0,1,18.35,0a3.672,3.672,0,0,1,.605.054,3.5,3.5,0,0,1,2.851,4.035,25.82,25.82,0,0,1-4.465,10.389H28.484c9.455,0,14.216,5.285,16.542,9.724a24.107,24.107,0,0,1,2.65,9.3,1.441,1.441,0,0,1,0,.175V73.586C46.162,73.586,42.56,73.566,40.668,73.566Z" transform="translate(47.678 73.586) rotate(180)" fill="#f9ce3f"/>
</svg>
