<?xml version="1.0" encoding="UTF-8"?>
<svg xmlns="http://www.w3.org/2000/svg" version="1.1" viewBox="0 0 16 16">
  <defs>
    <style>
      .cls-1 {
        fill: #072142;
      }

      .cls-1, .cls-2 {
        stroke-width: 0px;
      }

      .cls-2 {
        fill: #fff;
      }
    </style>
  </defs>
  <g id="Capa_1" data-name="Capa 1" focusable="false">
    <g id="Trazado_1662" data-name="Trazado 1662">
      <path class="cls-2" d="M8,15.7c-1,0-2.1-.2-3-.6-.9-.4-1.7-.9-2.5-1.7-.7-.7-1.3-1.5-1.7-2.5-.4-1-.6-2-.6-3s.2-2.1.6-3c.4-.9.9-1.7,1.7-2.5s1.5-1.3,2.5-1.7c1-.4,2-.6,3-.6s2.1.2,3,.6c.9.4,1.7.9,2.5,1.7.7.7,1.3,1.5,1.7,2.5.4,1,.6,2,.6,3s-.2,2.1-.6,3c-.4.9-.9,1.7-1.7,2.5-.7.7-1.5,1.3-2.5,1.7-1,.4-2,.6-3,.6Z"/>
      <path class="cls-2" d="M8,.4c-1,0-2,.2-2.9.6-.9.4-1.7.9-2.4,1.6-.7.7-1.2,1.5-1.6,2.4-.4.9-.6,1.9-.6,2.9s.2,2,.6,2.9c.4.9.9,1.7,1.6,2.4s1.5,1.2,2.4,1.6c.9.4,1.9.6,2.9.6s2-.2,2.9-.6c.9-.4,1.7-.9,2.4-1.6.7-.7,1.2-1.5,1.6-2.4.4-.9.6-1.9.6-2.9s-.2-2-.6-2.9c-.4-.9-.9-1.7-1.6-2.4s-1.5-1.2-2.4-1.6c-.9-.4-1.9-.6-2.9-.6M8,0c4.4,0,7.9,3.5,7.9,7.9s-3.5,7.9-7.9,7.9S0,12.3,0,7.9,3.6,0,8,0Z"/>
    </g>
    <path class="cls-1" d="M10.7,4.7c.9,0,1.7.7,1.8,1.7v5.1c0,.9-.7,1.7-1.7,1.8h-3.6c-.9,0-1.7-.7-1.8-1.7v-5.1c0-.9.7-1.7,1.7-1.8h3.6ZM11.1,2.8v1.1h-4.2c-1.2,0-2.2.9-2.3,2.2v4.4h-1.1v-4.2c0-1.8,1.4-3.3,3.2-3.4h4.4Z"/>
  </g>
</svg>