<svg xmlns="http://www.w3.org/2000/svg" width="43.334" height="45.066" viewBox="0 0 43.334 45.066">
  <g id="download_2_" data-name="download (2)" transform="translate(-1.564 -0.229)">
    <path id="Trazado_4100" data-name="Trazado 4100" d="M36.735,21.274V6.943c0-4.361-9.06-6.714-17.586-6.714S1.564,2.581,1.564,6.943V34.836c0,4.363,9.06,6.717,17.586,6.717,1.451,0,2.9-.075,4.32-.2A12.376,12.376,0,1,0,36.735,21.274ZM19.15,2.173c9.691,0,15.641,2.778,15.641,4.77S28.84,11.715,19.15,11.715,3.508,8.935,3.508,6.943s5.951-4.77,15.641-4.77ZM3.508,10.144c3.12,2.3,9.518,3.514,15.641,3.514s12.521-1.214,15.641-3.514V20.735a12.282,12.282,0,0,0-12.212,4.793c-1.111.083-2.258.132-3.429.132-9.691,0-15.641-2.778-15.641-4.77V10.144ZM19.15,39.609c-9.691,0-15.641-2.78-15.641-4.773V24.091c3.12,2.3,9.518,3.514,15.641,3.514.743,0,1.478-.019,2.2-.052a12.266,12.266,0,0,0,.693,11.956c-.96.06-1.926.1-2.9.1ZM32.509,43.35A10.445,10.445,0,1,1,42.954,32.9,10.457,10.457,0,0,1,32.509,43.35Z" fill="#072142"/>
    <g id="Grupo_1683" data-name="Grupo 1683" transform="translate(31.537 25.917)">
      <g id="Grupo_1685" data-name="Grupo 1685">
        <path id="Trazado_4099" data-name="Trazado 4099" d="M236.968,128.877a.968.968,0,0,0-.968.968v6.235a.968.968,0,1,0,1.936,0v-6.235A.968.968,0,0,0,236.968,128.877Z" transform="translate(-236 -128.877)" fill="#072142"/>
      </g>
    </g>
    <g id="Grupo_1684" data-name="Grupo 1684" transform="translate(31.199 35.273)">
      <g id="Grupo_1687" data-name="Grupo 1687">
        <circle id="Elipse_136" data-name="Elipse 136" cx="1.307" cy="1.307" r="1.307" fill="#072142"/>
      </g>
    </g>
  </g>
</svg>
