<svg xmlns="http://www.w3.org/2000/svg" version="1.1" xmlns:xlink="http://www.w3.org/1999/xlink" width="512" height="512" x="0" y="0" viewBox="0 0 64 64" style="enable-background:new 0 0 512 512" xml:space="preserve" class=""><g><path d="M0 53.98c0 6.6 13.87 10.17 26.92 10.17 4.91 0 9.68-.48 13.85-1.37 2.08.95 4.38 1.5 6.82 1.5 9.05 0 16.41-7.36 16.41-16.41 0-6.84-4.2-12.71-10.15-15.17V9.89c0-6.67-13.54-10.17-26.92-10.17C13.54-.28 0 3.21 0 9.89zm60.83-6.12c0 7.3-5.94 13.24-13.24 13.24s-13.24-5.94-13.24-13.24 5.94-13.24 13.24-13.24 13.24 5.94 13.24 13.24zM47.08 31.47c1.38-.56 2.59-1.2 3.59-1.91v2.18c-1-.19-2.03-.3-3.08-.3-.17.01-.34.03-.51.03zM26.92 2.9c14.71 0 23.75 4.07 23.75 6.99s-9.03 6.99-23.75 6.99c-14.71 0-23.75-4.07-23.75-6.99S12.21 2.9 26.92 2.9zM3.17 14.87c.04.03.1.06.14.09.22.15.45.3.69.44.07.04.14.09.21.13.3.18.62.35.94.51.07.03.14.07.2.1.28.13.56.27.85.39.1.04.2.09.3.13.36.15.73.3 1.11.44 0 0 .01 0 .01.01.38.14.78.28 1.19.41.12.04.23.07.35.11.33.11.67.21 1.02.31.09.03.17.05.26.08.43.12.86.23 1.3.34.11.03.22.05.34.08.36.08.72.17 1.09.24.12.03.24.05.37.08.46.1.93.19 1.4.27.07.01.14.02.21.04.41.07.83.14 1.26.21l.42.06 1.29.18.2.03c.5.06 1 .11 1.5.16.13.01.27.03.4.04.41.04.81.07 1.22.1l.37.03c.51.04 1.02.07 1.53.09.1 0 .21.01.31.01.42.02.85.03 1.27.05.14 0 .29.01.43.01.52.01 1.03.02 1.55.02.51 0 1.03-.01 1.55-.02.14 0 .29-.01.43-.01.42-.01.85-.03 1.27-.05.1 0 .21-.01.31-.01l1.53-.09.37-.03c.41-.03.81-.07 1.22-.1.14-.01.27-.02.41-.04.5-.05 1-.1 1.5-.16l.21-.03c.43-.05.86-.11 1.29-.18l.42-.06c.42-.06.84-.13 1.26-.21.07-.01.14-.02.21-.04.47-.08.94-.18 1.4-.27.12-.03.24-.05.36-.08.37-.08.73-.16 1.09-.25.11-.03.22-.05.33-.08.44-.11.88-.22 1.31-.34.09-.02.17-.05.26-.07.35-.1.69-.2 1.03-.31.11-.04.23-.07.34-.11.81-.27 1.59-.55 2.32-.86.1-.04.19-.08.29-.13.3-.13.58-.26.86-.4.06-.03.13-.06.19-.09.33-.17.65-.34.95-.51.07-.04.14-.08.2-.12.24-.14.47-.29.69-.44.04-.03.09-.06.14-.09v9.71c0 2.92-9.03 6.99-23.75 6.99-14.71 0-23.75-4.07-23.75-6.99v-9.72zm0 14.69c4.84 3.39 14.5 5.18 23.75 5.18 4.26 0 8.6-.38 12.53-1.12-4.46 2.56-7.62 7.15-8.19 12.52-1.4.08-2.85.14-4.34.14-14.71 0-23.75-4.08-23.75-7v-9.72zm0 14.7c4.84 3.4 14.5 5.19 23.75 5.19 1.49 0 2.92-.05 4.32-.13.39 4.36 2.48 8.23 5.61 10.94-3.12.46-6.48.72-9.93.72-14.71 0-23.75-4.07-23.75-6.99z" fill="#154481" opacity="1" data-original="#000000" class=""></path><path d="M45.99 41.22v5.06h-5.05v3.17h5.05v5.06h3.18v-5.06h5.07v-3.17h-5.07v-5.06z" fill="#154481" opacity="1" data-original="#000000" class=""></path></g></svg>