<svg xmlns="http://www.w3.org/2000/svg" width="35.271" height="44.088" viewBox="0 0 35.271 44.088">
  <g id="report" transform="translate(-3.2)">
    <path id="Trazado_4086" data-name="Trazado 4086" d="M12.136,16.986a1.474,1.474,0,0,1-1.474-1.474V11.1a1.474,1.474,0,1,1,2.935,0v4.409a1.474,1.474,0,0,1-1.46,1.474Z" transform="translate(2.816 3.584)" fill="#072142"/>
    <path id="Trazado_4087" data-name="Trazado 4087" d="M16.4,17.309a1.474,1.474,0,0,1-1.474-1.474V9.965a1.474,1.474,0,0,1,2.935,0v5.883a1.474,1.474,0,0,1-1.46,1.46Z" transform="translate(4.431 3.261)" fill="#072142"/>
    <path id="Trazado_4088" data-name="Trazado 4088" d="M20.676,18.191A1.474,1.474,0,0,1,19.2,16.717v-8.8a1.474,1.474,0,1,1,2.935,0v8.818A1.474,1.474,0,0,1,20.676,18.191Z" transform="translate(6.042 2.379)" fill="#072142"/>
    <path id="Trazado_4089" data-name="Trazado 4089" d="M32.588,44.088H9.083A5.883,5.883,0,0,1,3.2,38.205V11.573A7.33,7.33,0,0,1,5.845,5.924l5.07-4.216A7.371,7.371,0,0,1,15.614,0H32.588a5.883,5.883,0,0,1,5.883,5.883V38.205A5.883,5.883,0,0,1,32.588,44.088ZM15.614,2.935a4.423,4.423,0,0,0-2.756,1.02L7.719,8.184a4.4,4.4,0,0,0-1.584,3.389V38.205A2.948,2.948,0,0,0,9.069,41.14H32.588a2.948,2.948,0,0,0,2.935-2.935V5.883a2.948,2.948,0,0,0-2.935-2.935Z" fill="#072142"/>
    <path id="Trazado_4090" data-name="Trazado 4090" d="M27.679,26.407H10.043a1.474,1.474,0,1,1,0-2.935H27.679a1.474,1.474,0,1,1,0,2.935Z" transform="translate(1.974 8.864)" fill="#072142"/>
    <path id="Trazado_4091" data-name="Trazado 4091" d="M27.6,21.077H9.965a1.474,1.474,0,0,1,0-2.935H27.6a1.474,1.474,0,1,1,0,2.935Z" transform="translate(2.053 6.851)" fill="#072142"/>
  </g>
</svg>
