<svg xmlns="http://www.w3.org/2000/svg" width="40.759" height="17.809" viewBox="0 0 40.759 17.809">
  <path id="Trazado_3786" data-name="Trazado 3786" d="M1193.784,1035.437c.4,1.087.866,4.748,4.356,5.917,1.137.025,2.255.076,2.836,1.021a1.766,1.766,0,0,1-.645,2.191c-.825.41-2.545-.006-4.156,1.6a11.827,11.827,0,0,0-2.392,4.517,1.716,1.716,0,0,1-1.854,1.355c-1.462-.089-1.424-1.246-1.373-2.236a25.123,25.123,0,0,1,2.17-5.027c-2.32,0-31.139.106-31.139.106a1.309,1.309,0,0,1-.933-.642,2.24,2.24,0,0,1,0-2.233,1.128,1.128,0,0,1,.933-.552c2.549,0,30.9-.106,30.9-.106s-1.957-3.864-2.008-5.186a1.7,1.7,0,0,1,3.3-.731Z" transform="translate(-1160.358 -1034.249)" fill="#f9ce3f"/>
</svg>
