<svg xmlns="http://www.w3.org/2000/svg" width="17.928" height="17.928" viewBox="0 0 17.928 17.928">
  <g id="downloads" transform="translate(3)">
    <g id="Grupo_1652" data-name="Grupo 1652" transform="translate(-3 0)">
      <g id="Grupo_1651" data-name="Grupo 1651" transform="translate(0 0)">
        <g id="Grupo_1650" data-name="Grupo 1650">
          <path id="Trazado_4075" data-name="Trazado 4075" d="M13.944,17.928H3.984A3.984,3.984,0,0,1,0,13.944v-1a1,1,0,1,1,1.992,0v1a1.992,1.992,0,0,0,1.992,1.992h9.96a1.992,1.992,0,0,0,1.992-1.992v-1a1,1,0,1,1,1.992,0v1a3.984,3.984,0,0,1-3.984,3.984Zm-4.98-3.984a.993.993,0,0,1-.7-.283h0l0,0h0l0,0h0l0,0L4.276,9.668A1,1,0,0,1,5.684,8.26l2.284,2.284V1A1,1,0,0,1,9.96,1v9.547L12.243,8.26a1,1,0,0,1,1.409,1.409L9.668,13.652l0,0h0l0,0h0l0,0h0l-.033.031a.99.99,0,0,1-.275.174h0a.992.992,0,0,1-.386.078Z" transform="translate(0 0)" fill="#234d8f"/>
        </g>
      </g>
    </g>
  </g>
</svg>
