<svg xmlns="http://www.w3.org/2000/svg" width="25.762" height="25.762" viewBox="0 0 25.762 25.762">
  <g id="edit" transform="translate(-6.014 -6.031)">
    <g id="Grupo_1671" data-name="Grupo 1671" transform="translate(7.547 7.177)">
      <path id="Trazado_4079" data-name="Trazado 4079" d="M10.1,25.819a.991.991,0,0,1-.7-1.692L24.889,8.634a.991.991,0,1,1,1.4,1.4L10.8,25.529A.989.989,0,0,1,10.1,25.819Z" transform="translate(-9.105 -8.343)" fill="#154481"/>
    </g>
    <g id="Grupo_1672" data-name="Grupo 1672" transform="translate(6.015 22.67)">
      <path id="Trazado_4080" data-name="Trazado 4080" d="M7.007,48.719A1,1,0,0,1,6.8,48.7a.991.991,0,0,1-.761-1.177l1.532-7.14a.991.991,0,0,1,1.939.416l-1.532,7.14a.992.992,0,0,1-.969.784Z" transform="translate(-6.015 -39.597)" fill="#154481"/>
    </g>
    <g id="Grupo_1673" data-name="Grupo 1673" transform="translate(13.155 12.786)">
      <path id="Trazado_4081" data-name="Trazado 4081" d="M21.41,37.133a.991.991,0,0,1-.7-1.692L36.2,19.948a.991.991,0,1,1,1.4,1.4L22.111,36.842A.989.989,0,0,1,21.41,37.133Z" transform="translate(-20.418 -19.657)" fill="#154481"/>
    </g>
    <g id="Grupo_1674" data-name="Grupo 1674" transform="translate(6.014 28.278)">
      <path id="Trazado_4082" data-name="Trazado 4082" d="M7.005,54.425A.992.992,0,0,1,6.8,52.464l7.14-1.532a.991.991,0,0,1,.416,1.939L7.214,54.4a.97.97,0,0,1-.209.022Z" transform="translate(-6.014 -50.91)" fill="#154481"/>
    </g>
    <g id="Grupo_1675" data-name="Grupo 1675" transform="translate(20.235 9.981)">
      <path id="Trazado_4083" data-name="Trazado 4083" d="M41.3,21.591a.987.987,0,0,1-.7-.29l-5.608-5.608a.991.991,0,0,1,1.4-1.4L42,19.9a.991.991,0,0,1-.7,1.692Z" transform="translate(-34.702 -14)" fill="#154481"/>
    </g>
    <g id="Grupo_1676" data-name="Grupo 1676" transform="translate(23.039 6.031)">
      <path id="Trazado_4084" data-name="Trazado 4084" d="M46.958,14.768a.992.992,0,0,1-.7-1.693A2.974,2.974,0,0,0,42.05,8.87a.992.992,0,1,1-1.4-1.4,4.957,4.957,0,0,1,7.01,7.01.987.987,0,0,1-.7.29Z" transform="translate(-40.357 -6.031)" fill="#154481"/>
    </g>
  </g>
</svg>
