<?xml version="1.0" encoding="UTF-8"?>
<svg id="Capa_1" data-name="Capa 1" xmlns="http://www.w3.org/2000/svg" version="1.1" viewBox="0 0 16 16">
  <defs>
    <style>
      .cls-1 {
        fill: #072142;
      }

      .cls-1, .cls-2 {
        stroke-width: 0px;
      }

      .cls-2 {
        fill: #fff;
      }
    </style>
  </defs>
  <g id="Capa_1-2" data-name="Capa 1" focusable="false">
    <g id="Trazado_1662" data-name="Trazado 1662">
      <path class="cls-2" d="M8,15.7c-1,0-2.1-.2-3-.6-.9-.4-1.7-.9-2.5-1.7-.7-.7-1.3-1.5-1.7-2.5-.4-1-.6-2-.6-3s.2-2.1.6-3c.4-.9.9-1.7,1.7-2.5.8-.8,1.5-1.3,2.5-1.7C6,.3,7,0,8,0s2.1.2,3,.6c.9.4,1.7.9,2.5,1.7.7.7,1.3,1.5,1.7,2.5s.6,2,.6,3-.2,2.1-.6,3c-.4.9-.9,1.7-1.7,2.5s-1.5,1.3-2.5,1.7-2,.6-3,.6Z"/>
      <path class="cls-2" d="M8,.4c-1,0-2,.2-2.9.6s-1.7.9-2.4,1.6c-.7.7-1.2,1.5-1.6,2.4s-.6,1.9-.6,2.9.2,2,.6,2.9c.4.9.9,1.7,1.6,2.4s1.5,1.2,2.4,1.6c.9.4,1.9.6,2.9.6s2-.2,2.9-.6c.9-.4,1.7-.9,2.4-1.6.7-.7,1.2-1.5,1.6-2.4.4-.9.6-1.9.6-2.9s-.2-2-.6-2.9c-.4-.9-.9-1.7-1.6-2.4s-1.5-1.2-2.4-1.6-1.9-.6-2.9-.6M8,0C12.4,0,15.9,3.5,15.9,7.9s-3.5,7.9-7.9,7.9S0,12.3,0,7.9,3.6,0,8,0Z"/>
    </g>
  </g>
  <path class="cls-1" d="M12.8,5.1l-2.8,2.8,2.8,2.8c0-.1,0-.2,0-.4v-4.9c0-.1,0-.2,0-.4Z"/>
  <path class="cls-1" d="M12,4.6h-7.7c-.1,0-.2,0-.4,0l3.6,3.6c.3.3.8.3,1.2,0l3.6-3.6c-.1,0-.2,0-.4,0Z"/>
  <path class="cls-1" d="M3.6,5.1c0,.1,0,.2,0,.4v4.9c0,.1,0,.2,0,.4l2.8-2.8-2.8-2.8Z"/>
  <path class="cls-1" d="M9.6,8.3l-.4.4c-.5.5-1.4.5-1.9,0l-.4-.4-2.8,2.8c.1,0,.2,0,.4,0h7.7c.1,0,.2,0,.4,0l-2.8-2.8Z"/>
</svg>