<svg id="Capa_1" data-name="Capa 1" xmlns="http://www.w3.org/2000/svg" viewBox="0 0 758.82 173.4"><defs><style>.cls-1{fill:#1f335e;}.cls-2{fill:#ce0e2d;}.cls-3{fill:#ffcd00;}</style></defs><path class="cls-1" d="M724.17,17.82c0,12.56-4.71,17.77-12.47,17.77s-12.41-5.21-12.46-17.77S704,0,711.7,0,724.12,5.2,724.17,17.82Zm-20.61,0a29.7,29.7,0,0,0,.73,7.21l13.5-18a6.47,6.47,0,0,0-6.09-3.34C706.85,3.68,703.61,7,703.56,17.82Zm16.29,0A30.63,30.63,0,0,0,719,10L705.37,28.13a6.57,6.57,0,0,0,6.33,3.78C716.56,31.91,719.8,28.52,719.85,17.82Z"/><path class="cls-1" d="M723.34,68c0,7.11-4.57,11.88-11.24,11.88-8.15,0-12.27-5.89-12.27-17,0-11.88,4.51-18.55,12.71-18.55,5.64,0,9.37,2.94,10.41,8.44l-4.42,1c-.79-3.93-2.8-5.74-6-5.74-5.4,0-8.15,4.61-8.34,13.3a9.3,9.3,0,0,1,8.63-4.91C719.21,56.37,723.34,61,723.34,68Zm-4.42,0c0-4.86-2.65-8-7-8-3.73,0-6.48,2.41-7.66,6.93.54,5.59,3.44,9.22,7.86,9.22C716.27,76.2,718.92,73,718.92,68.06Z"/><path class="cls-2" d="M753.6,43a5.21,5.21,0,0,0-5.21,5.21v53.56a26.36,26.36,0,0,1-2.75,9.41c-3.14,6-8.16,8.87-15.37,8.87h-17a38.28,38.28,0,0,0,7-16,5.21,5.21,0,0,0-10.27-1.8,31.53,31.53,0,0,1-3.64,9.39c-3.28,5.46-7.54,8.11-13,8.11a5.22,5.22,0,1,0,0,10.43c13.34,0,16.54,16.76,16.67,17.5A5.22,5.22,0,0,0,715.2,152a5.47,5.47,0,0,0,.9-.08,5.21,5.21,0,0,0,4.24-6,38.4,38.4,0,0,0-6.64-15.45h16.57c14.06,0,21.14-7.86,24.6-14.46a35.86,35.86,0,0,0,3.94-13.83,2.17,2.17,0,0,0,0-.26V48.18A5.22,5.22,0,0,0,753.6,43Z"/><path class="cls-1" d="M671.65,31.22a125.53,125.53,0,0,0,11.58-9.77c4.32-4.17,5.8-7,5.8-11.09s-2.31-6.53-6.24-6.53-6.38,2.4-6.38,6.13a17,17,0,0,0,.39,3.15l-4.41-.45A10.84,10.84,0,0,1,672,9.92c0-6,4.12-9.92,11-9.92,6.62,0,10.6,3.68,10.6,10.31,0,4.81-2.4,9-7.66,13.84a70.31,70.31,0,0,1-8.39,6.73H694v4H671.65Z"/><path class="cls-1" d="M671.65,75.52a125.53,125.53,0,0,0,11.58-9.77c4.32-4.17,5.8-7,5.8-11.1s-2.31-6.52-6.24-6.52-6.38,2.4-6.38,6.13a16.81,16.81,0,0,0,.39,3.14L672.39,57a10.86,10.86,0,0,1-.35-2.75c0-6,4.12-9.91,11-9.91,6.62,0,10.6,3.68,10.6,10.31,0,4.81-2.4,9-7.66,13.84a70.27,70.27,0,0,1-8.39,6.72H694v4H671.65Z"/><path class="cls-1" d="M421,104.7V73.2a3.64,3.64,0,0,1,7.28,0v56.41c0,15-9.33,22.41-22.29,22.41-14.68,0-23.32-8.76-23.32-27.42s8.19-27.29,22.86-27.29A19.28,19.28,0,0,1,421,104.7Zm0,9.21s-4.32-10-15-10c-10.35,0-16,6.72-16,20.7,0,14.22,5.57,20.82,16,20.82,8.75,0,15-5,15-15.81Z"/><path class="cls-1" d="M442.28,83c0-3.3,1.59-4.55,4.32-4.55s4.32,1.25,4.32,4.55a4.32,4.32,0,1,1-8.64,0Zm8,64.83a3.64,3.64,0,1,1-7.28,0V101.63a3.64,3.64,0,1,1,7.28,0Z"/><path class="cls-1" d="M500.51,151.56v-6.48c-2.73,3.52-8,6.94-15.35,6.94-14.79,0-23.55-8.65-23.55-27.3s8.76-27.41,23.55-27.41c13,0,22.74,7.5,22.74,22.52v31.73c0,15.47-10.57,21.84-23.31,21.84-8.87,0-15.24-3.3-19-7.85a3.37,3.37,0,0,1-.68-2.05,3.54,3.54,0,0,1,3.53-3.52,3.5,3.5,0,0,1,2.73,1.25c2.61,2.61,6.25,5.34,13.42,5.34C493.91,166.57,500.51,161.91,500.51,151.56Zm0-31.73c0-10.81-6.82-15.93-15.35-15.93-10.47,0-16.27,6.6-16.27,20.82,0,14,5.8,20.7,16.27,20.7,10.69,0,15.35-9.21,15.35-9.21Z"/><path class="cls-1" d="M520.53,83c0-3.3,1.59-4.55,4.32-4.55s4.32,1.25,4.32,4.55a4.32,4.32,0,1,1-8.64,0Zm8,64.83a3.64,3.64,0,0,1-7.28,0V101.63a3.64,3.64,0,0,1,7.28,0Z"/><path class="cls-1" d="M546.12,87a3.73,3.73,0,0,1,3.64-3.64A3.67,3.67,0,0,1,553.4,87V98.9h7.39a3.41,3.41,0,1,1,0,6.82H553.4v31.4c0,4.89,2.73,7.5,6.59,7.5a3.42,3.42,0,1,1,0,6.83c-9,0-13.87-6-13.87-14.33v-31.4h-4.44a3.41,3.41,0,1,1,0-6.82h4.44Z"/><path class="cls-1" d="M580.81,109.93a3.72,3.72,0,0,1-3,1.59,3.29,3.29,0,0,1-3.3-3.29,3.55,3.55,0,0,1,.57-1.94c3.18-5,9.33-9,18.88-9,13.19,0,20.47,7.73,20.47,19.33v31.28a3.53,3.53,0,1,1-7.05,0v-4.09c-2.84,5.34-9.44,8.19-16.26,8.19-12.06,0-19.68-5.8-19.68-16.27,0-10,7.62-16,19.9-16h16v-3.07c0-7.73-5.12-12.51-13.42-12.51C588,104.13,584.33,106,580.81,109.93Zm26.61,20.93v-4.78h-16c-7.39,0-12.51,3.07-12.51,9.67,0,5.92,4.1,9.67,13,9.67C599.8,145.42,607.42,140.53,607.42,130.86Z"/><path class="cls-1" d="M635.4,73.2v64.94c0,4.55,1.48,6.48,4.55,6.48a3.42,3.42,0,0,1,0,6.83c-7.62,0-11.83-4.55-11.83-13.31V73.2a3.74,3.74,0,0,1,3.64-3.64A3.66,3.66,0,0,1,635.4,73.2Z"/><path class="cls-2" d="M352,165.43a3.39,3.39,0,0,1-3.39-3.39V88.55a3.4,3.4,0,0,1,6.79,0V162A3.4,3.4,0,0,1,352,165.43Z"/><path class="cls-3" d="M52.77,146.27a3.46,3.46,0,0,1-3.52,3.07H3.53A3.41,3.41,0,0,1,0,145.81a3.47,3.47,0,0,1,3.53-3.52H7.62V79.85H3.53A3.41,3.41,0,0,1,0,76.32a3.48,3.48,0,0,1,3.53-3.53H48a3.41,3.41,0,0,1,3.52,3.53V85A3.41,3.41,0,0,1,48,88.49,3.47,3.47,0,0,1,44.47,85V79.85H15.35v27.41h25a3.53,3.53,0,0,1,0,7h-25v28H45.72v-5.12a3.47,3.47,0,0,1,3.53-3.53,3.4,3.4,0,0,1,3.52,3.53Z"/><path class="cls-3" d="M66,110c0,11.94,29.91,7.5,29.91,25.7,0,10.35-8.53,15-19.34,15-9.32,0-16.49-4.43-19.44-8.18a3.42,3.42,0,0,1-.8-2.17,3.3,3.3,0,0,1,3.3-3.29,3.47,3.47,0,0,1,2.5,1.13c3.53,3.53,8.08,5.58,14.44,5.58s12.06-2.16,12.06-8.08c0-11.71-29.91-7.05-29.91-25.7,0-9.44,7.73-13.77,17.4-13.77,7.73,0,13.76,2.62,17.29,7.28a3.48,3.48,0,0,1,.79,2.16,3.29,3.29,0,0,1-3.29,3.3,3.22,3.22,0,0,1-2.39-1c-3.07-3-6.49-4.78-12.4-4.78C71,103.16,66,104.75,66,110Z"/><path class="cls-3" d="M102,172.2a3.41,3.41,0,0,1,0-6.82h4.78V104.53H102a3.42,3.42,0,0,1,0-6.83h8.65a3.35,3.35,0,0,1,3.41,3.42v2.95c2.16-3.86,7.85-8,15.47-8,14.78,0,23.77,8.64,23.77,27.3s-9,27.41-23.77,27.41a18.18,18.18,0,0,1-15.47-8v22.52H120a3.41,3.41,0,1,1,0,6.82Zm27.53-28c10.46,0,16.37-6.6,16.37-20.81s-6.14-20.7-16.6-20.7c-8.42,0-15.47,5.91-15.47,20.7S120.67,144.22,129.55,144.22Z"/><path class="cls-3" d="M196.65,149.34a2.79,2.79,0,0,1-2.62-3v-3.75c-2.84,5.34-10,8.19-16.83,8.19-12.06,0-19.68-5.8-19.68-16.27,0-10,7.62-16,19.91-16h16v-3.07c0-7.74-5.12-12.52-13.42-12.52-6,0-9.67,1.82-13.19,5.81a3.72,3.72,0,0,1-3,1.59,3.3,3.3,0,0,1-3.3-3.3,3.49,3.49,0,0,1,.57-1.93c3.19-5,9.33-9,18.88-9,13.2,0,20.47,7.73,20.47,19.34v27.07h4.78a3.41,3.41,0,1,1,0,6.82Zm-18.77-5.12c8,0,15.58-4.89,15.58-14.56v-4.77h-16c-7.4,0-12.52,3.07-12.52,9.66C164.91,140.47,169,144.22,177.88,144.22Z"/><path class="cls-3" d="M213.25,149.34a3.41,3.41,0,0,1,0-6.82H218v-38h-4.78a3.42,3.42,0,0,1,0-6.83h8.65a3.35,3.35,0,0,1,3.41,3.42v2.95c2.16-4.32,7.73-8,15.13-8,17.51,0,20.92,10.46,20.92,20.13v26.28h4.78a3.41,3.41,0,1,1,0,6.82H249.31a3.41,3.41,0,1,1,0-6.82h4.77v-24.8c0-9-2.61-15.13-13.64-15.13-10.47,0-15.13,6.83-15.13,15.93v24h4.78a3.41,3.41,0,1,1,0,6.82Zm34.69-65.51c2.28,0,3.41-.91,5-3a2.53,2.53,0,0,1,2.16-1.25,2.72,2.72,0,0,1,2.61,2.61c0,3-4.43,6.94-9.78,6.94S239.75,85,235.2,85c-2.27,0-3.41.91-5,3.08A2.78,2.78,0,0,1,228,89.17a2.64,2.64,0,0,1-2.62-2.61c0-3.07,4.67-6.94,9.78-6.94C240.55,79.62,243.51,83.83,247.94,83.83Z"/><path class="cls-3" d="M309.93,149.34a2.79,2.79,0,0,1-2.62-3v-3.75c-2.84,5.34-10,8.19-16.83,8.19-12.06,0-19.68-5.8-19.68-16.27,0-10,7.62-16,19.91-16h16v-3.07c0-7.74-5.12-12.52-13.42-12.52-6,0-9.67,1.82-13.19,5.81a3.72,3.72,0,0,1-3,1.59,3.3,3.3,0,0,1-3.3-3.3,3.49,3.49,0,0,1,.57-1.93c3.19-5,9.33-9,18.88-9,13.2,0,20.47,7.73,20.47,19.34v27.07h4.78a3.41,3.41,0,1,1,0,6.82Zm-18.77-5.12c8,0,15.58-4.89,15.58-14.56v-4.77h-16c-7.4,0-12.52,3.07-12.52,9.66C278.19,140.47,282.29,144.22,291.16,144.22Z"/></svg>