<?xml version="1.0" encoding="UTF-8"?>
<svg id="Layer_1" data-name="Layer 1" xmlns="http://www.w3.org/2000/svg" version="1.1" viewBox="0 0 512 512">
  <defs>
    <style>
      .cls-1 {
        fill: #072142;
      }

      .cls-1, .cls-2 {
        stroke-width: 0px;
      }

      .cls-2 {
        fill: #fff;
      }
    </style>
  </defs>
  <g id="Trazado_1662" data-name="Trazado 1662">
    <path class="cls-2" d="M256,506.3c-33.8,0-66.6-6.6-97.5-19.7-29.8-12.6-56.6-30.7-79.6-53.7-23-23-41.1-49.8-53.7-79.6-13.1-30.9-19.7-63.7-19.7-97.5s6.6-66.6,19.7-97.5c12.6-29.8,30.7-56.6,53.7-79.6,23-23,49.8-41.1,79.6-53.7,30.9-13.1,63.7-19.7,97.5-19.7s66.6,6.6,97.5,19.7c29.8,12.6,56.6,30.7,79.6,53.7,23,23,41.1,49.8,53.7,79.6,13.1,30.9,19.7,63.7,19.7,97.5s-6.6,66.6-19.7,97.5c-12.6,29.8-30.7,56.6-53.7,79.6-23,23-49.8,41.1-79.6,53.7-30.9,13.1-63.7,19.7-97.5,19.7Z"/>
    <path class="cls-2" d="M256,11.2c-33,0-65.1,6.5-95.3,19.2-29.1,12.3-55.3,30-77.8,52.5-22.5,22.5-40.1,48.7-52.5,77.8-12.8,30.2-19.2,62.2-19.2,95.3s6.5,65.1,19.2,95.3c12.3,29.1,30,55.3,52.5,77.8,22.5,22.5,48.7,40.1,77.8,52.5,30.2,12.8,62.2,19.2,95.3,19.2s65.1-6.5,95.3-19.2c29.1-12.3,55.3-30,77.8-52.5,22.5-22.5,40.1-48.7,52.5-77.8,12.8-30.2,19.2-62.2,19.2-95.3s-6.5-65.1-19.2-95.3c-12.3-29.1-30-55.3-52.5-77.8-22.5-22.5-48.7-40.1-77.8-52.5-30.2-12.8-62.2-19.2-95.3-19.2M256-.2c141.4,0,256.1,114.7,256.1,256.1s-114.7,256.1-256.1,256.1S-.1,397.3-.1,255.9,114.6-.2,256-.2Z"/>
  </g>
  <g id="_01._Facebook" data-name="01. Facebook">
    <path id="Icon" class="cls-1" d="M213.4,279.1h-43.9c-7.1,0-9.3-2.7-9.3-9.3v-53.7c0-7.1,2.7-9.3,9.3-9.3h43.9v-39c0-17.7,3.1-34.6,12-50.1,9.3-16,22.6-26.6,39.5-32.8,11.1-4,22.2-5.8,34.1-5.8h43.5c6.2,0,8.9,2.7,8.9,8.9v50.6c0,6.2-2.7,8.9-8.9,8.9-12,0-23.9,0-35.9.4-12,0-18.2,5.8-18.2,18.2-.4,13.3,0,26.2,0,39.9h51.4c7.1,0,9.8,2.7,9.8,9.8v53.7c0,7.1-2.2,9.3-9.8,9.3h-51.4v144.6c0,7.5-2.2,10.2-10.2,10.2h-55.4c-6.7,0-9.3-2.7-9.3-9.3v-145h0Z"/>
  </g>
</svg>