<svg xmlns="http://www.w3.org/2000/svg" width="20.998" height="21" viewBox="0 0 20.998 21">
  <path id="home" d="M20.433,9.134h0L11.866.567a1.933,1.933,0,0,0-2.734,0L.57,9.128l-.009.009a1.932,1.932,0,0,0,1.287,3.294l.06,0h.341v6.3A2.265,2.265,0,0,0,4.511,21H7.863a.615.615,0,0,0,.615-.615V15.442A1.033,1.033,0,0,1,9.51,14.41h1.977a1.033,1.033,0,0,1,1.032,1.032v4.942a.615.615,0,0,0,.615.615h3.351a2.265,2.265,0,0,0,2.263-2.262v-6.3h.317a1.933,1.933,0,0,0,1.368-3.3Zm0,0" transform="translate(0.001)" fill="#154481"/>
</svg>
