<?xml version="1.0" encoding="UTF-8"?>
<svg id="link_rrss" data-name="link rrss" xmlns="http://www.w3.org/2000/svg" version="1.1" viewBox="0 0 45 45">
  <defs>
    <style>
      .cls-1 {
        fill: #072142;
      }

      .cls-1, .cls-2 {
        stroke-width: 0px;
      }

      .cls-2 {
        fill: #fff;
      }
    </style>
  </defs>
  <g id="Trazado_1662" data-name="Trazado 1662">
    <path class="cls-2" d="M22.5,44.5c-3,0-5.9-.6-8.6-1.7-2.6-1.1-5-2.7-7-4.7-2-2-3.6-4.4-4.7-7-1.1-2.7-1.7-5.6-1.7-8.6s.6-5.9,1.7-8.6c1.1-2.6,2.7-5,4.7-7s4.4-3.6,7-4.7c2.7-1.1,5.6-1.7,8.6-1.7s5.9.6,8.6,1.7c2.6,1.1,5,2.7,7,4.7,2,2,3.6,4.4,4.7,7,1.1,2.7,1.7,5.6,1.7,8.6s-.6,5.9-1.7,8.6c-1.1,2.6-2.7,5-4.7,7-2,2-4.4,3.6-7,4.7-2.7,1.1-5.6,1.7-8.6,1.7Z"/>
    <path class="cls-2" d="M22.5,1c-2.9,0-5.7.6-8.4,1.7-2.6,1.1-4.9,2.6-6.8,4.6-2,2-3.5,4.3-4.6,6.8-1.1,2.6-1.7,5.5-1.7,8.4s.6,5.7,1.7,8.4c1.1,2.6,2.6,4.9,4.6,6.8s4.3,3.5,6.8,4.6c2.6,1.1,5.5,1.7,8.4,1.7s5.7-.6,8.4-1.7c2.6-1.1,4.9-2.6,6.8-4.6,2-2,3.5-4.3,4.6-6.8,1.1-2.6,1.7-5.5,1.7-8.4s-.6-5.7-1.7-8.4c-1.1-2.6-2.6-4.9-4.6-6.8s-4.3-3.5-6.8-4.6c-2.6-1.1-5.5-1.7-8.4-1.7M22.5,0C34.9,0,45,10.1,45,22.5s-10.1,22.5-22.5,22.5S0,34.9,0,22.5,10.1,0,22.5,0Z"/>
  </g>
  <g id="_10.Linkedin" data-name="10.Linkedin">
    <path id="Trazado_1656" data-name="Trazado 1656" class="cls-1" d="M35.5,34.5v-9.5c0-4.7-1-8.2-6.5-8.2-2.1,0-4,1-5.1,2.8h0v-2.4h-5.2v17.3h5.4v-8.6c0-2.3.4-4.4,3.2-4.4s2.8,2.6,2.8,4.6v8.4h5.4Z"/>
    <path id="Trazado_1657" data-name="Trazado 1657" class="cls-1" d="M10,17.2h5.4v17.3h-5.4v-17.3Z"/>
    <path id="Trazado_1658" data-name="Trazado 1658" class="cls-1" d="M12.6,8.5c-1.7,0-3.1,1.4-3.1,3.1,0,1.7,1.4,3.1,3.1,3.1,1.7,0,3.1-1.4,3.1-3.1,0,0,0,0,0,0,0-1.7-1.4-3.1-3.1-3.1Z"/>
  </g>
</svg>