<?xml version="1.0" encoding="UTF-8"?>
<svg id="Capa_1" data-name="Capa 1" xmlns="http://www.w3.org/2000/svg" viewBox="0 0 1250 400">
  <defs>
    <style>
      .cls-1 {
        fill: #e05318;
      }

      .cls-2 {
        fill: #205c7c;
      }
    </style>
  </defs>
  <path class="cls-2" d="m105.04,185.04l-63.23-6.81c3.94-11.28,8.78-20.24,14.15-26.69,6.09-6.99,13.61-12.72,22.03-16.84,8.42-3.94,17.37-6.63,26.51-8.06,11.64-1.97,23.46-2.87,35.29-2.87,20.06,0,36.18,1.07,48,3.4,11.82,2.33,21.31,6.99,28.48,14.33,5.02,5.02,8.6,12.18,10.57,21.31,1.97,8.6,2.51,17.55,1.25,26.33l-10.93,78.09c-1.07,6.45-1.43,13.08-1.07,19.52.72,6.27,2.15,12.18,4.3,18.09h-62.69c-1.61-3.4-2.69-6.81-3.58-10.39-.54-3.76-.72-7.52-.72-11.28-8.6,7.7-18.27,13.79-28.84,18.27-13.61,5.02-27.94,7.52-42.27,7.34-20.96,0-36-4.84-45.5-14.69s-13.25-21.85-11.28-36.18c1.43-12.54,7.16-24.36,16.3-33.14,9.13-8.78,24.36-15.22,45.85-19.52,25.97-5.19,42.81-8.78,50.51-10.75,8.42-2.33,16.66-5.02,24.9-8.06,1.25-8.42.36-14.15-2.69-17.55s-8.78-4.84-17.2-4.84c-10.93,0-19.52,1.79-25.43,5.37-4.84,2.69-8.96,7.88-12.72,15.58Zm53.38,35.64c-9.67,3.4-19.7,6.27-30.09,8.78-14.15,3.76-23.28,7.34-27.4,10.75-3.94,3.04-6.63,7.52-7.34,12.54-.9,4.66.36,9.49,3.76,13.08,3.22,3.4,8.42,5.19,15.58,5.19,7.52,0,15.05-1.97,21.67-5.55,6.27-3.04,11.64-7.7,15.58-13.43,3.76-6.27,6.09-13.25,6.81-20.6l1.43-10.75Z"/>
  <path class="cls-2" d="m246.89,372.04l34.03-244.31h62.87l-3.58,26.15c10.21-10.93,19.17-18.45,27.05-22.39,10.39-5.19,21.85-7.88,33.67-7.88,23.46,0,40.3,9.13,50.51,27.23,10.21,18.09,13.61,40.48,9.85,67.17-4.12,29.37-14.15,51.94-30.27,67.35-16.12,15.4-34.93,23.28-56.24,23.28-9.49.18-18.81-1.61-27.58-5.37-8.06-3.58-15.05-8.96-20.6-15.76l-11.82,84.54h-67.88Zm88.84-155.29c-1.97,13.97-.54,24.36,4.48,31.17,4.66,6.63,12.54,10.57,20.78,10.21,7.88,0,14.87-3.22,20.96-9.67,6.27-6.45,10.39-17.55,12.54-33.14,1.97-14.33.72-24.9-3.76-31.52-3.94-6.45-11.11-10.21-18.81-10.03-8.78,0-17.02,3.76-22.93,10.21-6.81,6.45-11.11,17.55-13.25,32.78h0Z"/>
  <path class="cls-2" d="m485.3,216.75c3.22-25.97,16.12-49.97,36.18-66.81,20.42-17.55,46.03-26.33,76.66-26.33,35.11,0,60.18,10.21,75.23,30.81,12.18,16.48,16.48,36.9,13.08,61.26-3.76,27.23-15.76,49.61-36.18,66.99-20.24,17.37-46.21,26.15-77.74,26.15-28.12,0-49.97-7.16-65.38-21.67-18.63-17.91-25.97-41.38-21.85-70.39Zm67.35-.18c-2.15,15.76-.72,27.4,4.66,34.93,5.02,7.34,13.43,11.64,22.21,11.28,9.67,0,18.81-4.12,25.43-11.11,7.16-7.52,12-19.34,14.33-35.82,2.15-15.4.54-26.69-4.66-34.21-4.84-7.34-13.08-11.64-21.85-11.28-9.85,0-19.17,4.12-25.79,11.46-7.52,7.52-12.36,19.17-14.33,34.75h0Z"/>
  <path class="cls-2" d="m731.76,127.73h62.87l-3.94,29.02c7.7-12.54,15.22-21.14,22.39-25.97,7.34-4.84,15.94-7.34,24.9-7.16,9.85,0,20.24,3.04,31.17,9.31l-27.58,48.36c-7.52-3.4-13.43-5.02-18.09-5.02-8.78,0-16.84,4.12-22.03,11.11-8.42,10.39-14.51,29.73-18.45,58.03l-8.24,59.29h-67.53l24.54-176.97Z"/>
  <path class="cls-2" d="m988.25,60.38l-9.31,67.35h36.9l-6.99,49.61h-36.9l-8.78,62.69c-1.07,7.52-1.07,12.54,0,14.87,1.61,3.76,5.19,5.73,10.75,5.73,5.02,0,12-1.43,21.31-4.3l-1.43,46.93c-15.58,3.4-31.35,5.37-47.29,5.55-16.66,0-28.66-2.15-36-6.45-7.34-4.3-12.72-11.46-14.87-19.7-2.51-8.78-2.51-23.11.18-42.81l8.6-62.33h-24.72l6.99-49.61h24.9l4.48-32.6,72.18-34.93Z"/>
  <path class="cls-2" d="m1101.09,185.04l-63.23-6.81c3.94-11.28,8.78-20.24,14.15-26.69,6.09-6.99,13.61-12.72,22.03-16.84,8.42-3.94,17.37-6.63,26.51-8.06,11.64-1.97,23.46-2.87,35.46-2.87,20.06,0,36.18,1.07,48,3.4,11.82,2.33,21.49,6.99,28.48,14.33,5.02,5.02,8.6,12.18,10.57,21.31,1.97,8.6,2.51,17.55,1.25,26.33l-10.93,78.09c-1.07,6.45-1.43,13.08-1.25,19.52.72,6.27,2.15,12.18,4.3,18.09h-63.05c-1.61-3.4-2.69-6.81-3.58-10.39-.54-3.76-.72-7.52-.72-11.28-8.6,7.7-18.27,13.79-28.84,18.27-13.61,5.02-27.94,7.52-42.45,7.34-20.96,0-36.18-4.84-45.5-14.69-9.49-9.85-13.25-21.85-11.28-36.18,1.43-12.54,7.16-24.36,16.3-33.14,8.96-8.6,24.36-15.05,45.85-19.34,25.97-5.19,42.81-8.78,50.51-10.75,8.42-2.33,16.66-5.02,24.9-8.06,1.25-8.42.36-14.15-2.69-17.55s-8.78-5.02-17.2-5.02c-10.93,0-19.52,1.79-25.43,5.37-4.3,2.69-8.42,7.88-12.18,15.58Zm53.38,35.64c-9.67,3.4-19.7,6.27-30.09,8.78-14.15,3.76-23.28,7.34-27.4,10.75-3.94,3.04-6.63,7.52-7.34,12.54-.9,4.66.54,9.49,3.76,13.08,3.22,3.4,8.42,5.02,15.58,5.02,7.52,0,15.05-1.97,21.67-5.55,6.27-3.04,11.64-7.7,15.58-13.43,3.76-6.27,6.09-13.25,6.99-20.6l1.25-10.57Z"/>
  <path class="cls-1" d="m73.15,27.96h18.27l-8.24,59.11h-18.27l8.24-59.11Z"/>
  <path class="cls-1" d="m101.27,44.26h15.22l-1.07,6.99c2.15-2.51,4.84-4.66,7.88-6.09,2.69-1.25,5.73-1.79,8.78-1.79,4.48,0,7.88,1.43,10.03,4.12s2.87,6.81,2.15,12.54l-3.76,27.05h-16.48l3.22-23.46c.54-1.97.18-3.94-.72-5.73-.9-1.25-2.51-1.79-3.94-1.61-1.97,0-3.76.72-5.19,2.33-1.79,2.33-2.87,5.19-3.04,8.06l-2.69,20.42h-16.3l5.91-42.81Z"/>
  <path class="cls-1" d="m156.8,44.26h16.48l-6.09,42.81h-16.48l6.09-42.81Zm2.33-16.3h16.48l-1.61,11.11h-16.48l1.61-11.11Z"/>
  <path class="cls-1" d="m211.97,70.23l15.4,1.79c-1.25,3.22-3.04,6.09-5.37,8.42s-5.19,4.3-8.24,5.55c-3.76,1.43-7.88,2.15-12,1.97-3.76.18-7.52-.36-11.11-1.25-2.69-.72-5.19-2.15-7.16-4.12-1.97-1.79-3.4-4.12-4.12-6.63-.9-3.22-1.07-6.81-.36-10.21.36-3.94,1.79-7.7,3.76-10.93,2.87-4.3,6.99-7.7,11.82-9.67,3.94-1.43,8.24-2.15,12.54-1.97,6.99,0,12.18,1.25,15.4,3.76,3.4,2.69,5.73,6.63,6.09,10.93l-15.76,1.97c-.18-1.61-.9-3.04-2.15-4.12-1.43-1.07-3.22-1.43-5.02-1.43-2.69,0-5.19,1.07-6.99,2.87-2.15,2.51-3.58,5.55-3.76,8.78-.72,2.69-.18,5.55,1.43,8.06,1.43,1.79,3.58,2.87,5.91,2.69,1.97,0,3.94-.54,5.73-1.61,1.79-1.07,3.04-2.87,3.94-4.84Z"/>
  <path class="cls-1" d="m239.37,44.26h16.48l-6.09,42.81h-16.48l6.09-42.81Zm2.33-16.3h16.3l-1.61,11.11h-16.48l1.79-11.11Z"/>
  <path class="cls-1" d="m279.31,58.05l-15.4-1.61c.72-2.33,1.97-4.48,3.4-6.45,1.43-1.79,3.4-3.04,5.37-4.12,1.97-.9,4.3-1.61,6.45-1.97,2.87-.54,5.73-.72,8.6-.72,3.94,0,7.88.18,11.82.9,2.69.36,5.02,1.61,6.99,3.4,1.25,1.43,2.15,3.22,2.51,5.19.54,2.15.54,4.3.36,6.27l-2.69,18.81c-.36,1.61-.36,3.22-.36,4.66.18,1.43.54,3.04,1.07,4.3h-15.4c-.36-.9-.72-1.61-.9-2.51s-.18-1.79-.18-2.69c-2.15,1.79-4.48,3.4-6.99,4.48-3.4,1.25-6.81,1.79-10.39,1.79-5.19,0-8.78-1.25-11.11-3.58s-3.22-5.55-2.69-8.78c.36-3.04,1.79-5.91,3.94-8.06s5.91-3.58,11.28-4.66c6.27-1.25,10.39-2.15,12.36-2.69,1.97-.54,4.12-1.25,6.09-1.97.36-1.43.18-3.04-.72-4.3-1.25-.9-2.69-1.43-4.3-1.25-2.15-.18-4.3.36-6.27,1.25-1.25,1.43-2.15,2.87-2.87,4.3Zm13.08,8.6c-2.33.9-4.84,1.43-7.34,2.15-2.33.36-4.66,1.25-6.63,2.69-.9.72-1.61,1.79-1.79,3.04-.18,1.07.18,2.33.9,3.22,1.07.9,2.33,1.43,3.76,1.25,1.79,0,3.58-.54,5.19-1.25,1.43-.72,2.87-1.79,3.76-3.22s1.43-3.22,1.61-5.02l.54-2.87Z"/>
  <path class="cls-1" d="m342,27.96l-2.33,16.3h8.96l-1.61,12h-8.96l-2.15,15.22c-.36,1.25-.36,2.33,0,3.58.54.9,1.43,1.43,2.51,1.43,1.79-.18,3.58-.54,5.19-1.07l-.36,11.28c-3.76.9-7.7,1.25-11.46,1.25-3.04.18-6.09-.36-8.78-1.61-1.79-1.07-3.04-2.69-3.58-4.84-.72-3.4-.72-6.99,0-10.39l2.15-15.05h-6.09l1.61-12h6.09l1.07-7.88,17.73-8.24Z"/>
  <path class="cls-1" d="m357.05,44.26h16.3l-5.91,42.81h-16.48l6.09-42.81Zm2.33-16.3h16.3l-1.43,11.11h-16.3l1.43-11.11Z"/>
  <path class="cls-1" d="m379.08,44.26h17.02l4.48,27.05,12.36-27.05h16.48l-24,42.81h-14.51l-11.82-42.81Z"/>
  <path class="cls-1" d="m447.32,58.05l-15.4-1.61c.72-2.33,1.97-4.48,3.4-6.45,1.43-1.79,3.4-3.04,5.37-4.12,1.97-.9,4.3-1.61,6.45-1.97,2.87-.54,5.73-.72,8.6-.72,3.94,0,7.88.18,11.82.9,2.69.36,5.02,1.61,6.99,3.4,1.43,1.43,2.33,3.22,2.51,5.19.54,2.15.54,4.3.36,6.27l-2.69,18.81c-.18,1.61-.36,3.22-.36,4.66.18,1.43.54,3.04,1.07,4.3h-15.22c-.36-.9-.72-1.61-.9-2.51s-.18-1.79-.18-2.69c-2.15,1.79-4.48,3.4-6.99,4.48-3.4,1.25-6.81,1.79-10.39,1.79-5.02,0-8.78-1.25-11.11-3.58s-3.22-5.55-2.69-8.78c.36-3.04,1.79-5.91,3.94-8.06s5.91-3.58,11.28-4.66c6.27-1.25,10.39-2.15,12.36-2.69,1.97-.54,4.12-1.25,6.09-1.97.36-1.43.18-3.04-.72-4.3-1.25-.9-2.69-1.43-4.3-1.25-2.15-.18-4.3.36-6.27,1.25-1.25,1.43-2.33,2.87-3.04,4.3Zm13.08,8.6c-2.33.9-4.84,1.43-7.34,2.15-2.33.36-4.66,1.25-6.63,2.69-.9.72-1.61,1.79-1.79,3.04-.18,1.07.18,2.33.9,3.22,1.07.9,2.33,1.43,3.76,1.25,1.79,0,3.76-.54,5.37-1.25,1.43-.72,2.87-1.79,3.76-3.22s1.43-3.22,1.61-5.02l.36-2.87Z"/>
</svg>