<svg xmlns="http://www.w3.org/2000/svg" xmlns:xlink="http://www.w3.org/1999/xlink" width="89.386" height="89.386" viewBox="0 0 89.386 89.386">
  <defs>
    <clipPath id="clip-path">
      <path id="path2115" d="M0-682.665H89.386v89.386H0Z" transform="translate(0 682.665)" fill="#154481"/>
    </clipPath>
  </defs>
  <g id="g2109" transform="translate(24 682.665)">
    <g id="g2111" transform="translate(-24 -682.665)">
      <g id="g2113" transform="translate(0 0)" clip-path="url(#clip-path)">
        <g id="Grupo_1419" data-name="Grupo 1419" transform="translate(6.756 1.269)">
          <g id="Grupo_1432" data-name="Grupo 1432" transform="translate(18.968)">
            <g id="Grupo_1426" data-name="Grupo 1426" transform="translate(0 0)">
              <path id="Trazado_3854" data-name="Trazado 3854" d="M185.515,45.437H147.578V8.841A1.341,1.341,0,0,1,148.919,7.5h35.253a1.343,1.343,0,0,1,1.343,1.343Z" transform="translate(-147.578 -7.5)" fill="#f9ce3f"/>
            </g>
            <g id="Grupo_1427" data-name="Grupo 1427" transform="translate(33.169 0.001)">
              <path id="Trazado_3855" data-name="Trazado 3855" d="M342.5,8.845v36.6h-3.426V8.845A1.342,1.342,0,0,0,337.732,7.5h3.426A1.342,1.342,0,0,1,342.5,8.845Z" transform="translate(-337.732 -7.504)" fill="#e0c100"/>
            </g>
            <g id="Grupo_1428" data-name="Grupo 1428" transform="translate(14.439)">
              <path id="Trazado_3856" data-name="Trazado 3856" d="M234.887,7.5h-4.529V17.574a.8.8,0,0,0,1.162.71l3-1.54a.8.8,0,0,1,.728,0l3,1.54a.8.8,0,0,0,1.162-.71V7.5Z" transform="translate(-230.358 -7.5)" fill="#f9ce3f"/>
            </g>
            <g id="Grupo_1429" data-name="Grupo 1429" transform="translate(20.072 0.001)">
              <path id="Trazado_3857" data-name="Trazado 3857" d="M266.075,7.5V17.577a.8.8,0,0,1-1.163.711l-2.263-1.16V7.5Z" transform="translate(-262.649 -7.504)" fill="#e0c100"/>
            </g>
            <g id="Grupo_1430" data-name="Grupo 1430" transform="translate(11.809 24.536)">
              <path id="Trazado_3858" data-name="Trazado 3858" d="M228.83,155.188H216.05a.769.769,0,0,1-.769-.769v-5.484a.769.769,0,0,1,.769-.769h12.78a.769.769,0,0,1,.769.769v5.484A.769.769,0,0,1,228.83,155.188Z" transform="translate(-215.281 -148.166)" fill="#f9ce3f"/>
            </g>
            <g id="Grupo_1431" data-name="Grupo 1431" transform="translate(21.866 24.536)">
              <path id="Trazado_3859" data-name="Trazado 3859" d="M277.194,148.931v5.484a.769.769,0,0,1-.769.769h-3.493a.769.769,0,0,0,.769-.769v-5.484a.769.769,0,0,0-.769-.769h3.493A.769.769,0,0,1,277.194,148.931Z" transform="translate(-272.932 -148.162)" fill="#e0c100"/>
            </g>
          </g>
        </g>
        <g id="g2119" transform="translate(43.384 37.914)">
          <path id="path2121" d="M-260.706-210.636h-37.97a1.309,1.309,0,0,1-1.309-1.309v-37.97a1.309,1.309,0,0,1,1.309-1.309h36.626a2.656,2.656,0,0,1,2.653,2.653v24.293a1.309,1.309,0,0,1-1.309,1.309,1.309,1.309,0,0,1-1.309-1.309v-24.293l-35.351-.033v35.35h35.351v-5.075a1.309,1.309,0,0,1,1.309-1.309,1.309,1.309,0,0,1,1.309,1.309v6.384A1.309,1.309,0,0,1-260.706-210.636Z" transform="translate(299.985 251.225)" fill="#154481"/>
        </g>
        <g id="g2123" transform="translate(57.835 37.914)">
          <path id="path2125" d="M-43.311-10h9.066a1.309,1.309,0,0,1,1.309,1.309V1.392A2.111,2.111,0,0,1-35.044,3.5,2.117,2.117,0,0,1-36,3.268l-2.773-1.421-2.773,1.421a2.117,2.117,0,0,1-.961.233A2.111,2.111,0,0,1-44.62,1.392V-8.691A1.309,1.309,0,0,1-43.311-10Zm7.756,2.619H-42V.556L-39.739-.6a2.144,2.144,0,0,1,1.923,0L-35.554.556Z" transform="translate(44.62 10)" fill="#154481"/>
        </g>
        <g id="g2127" transform="translate(55.203 62.472)">
          <path id="path2129" d="M-98.7-54.027h-12.792a2.081,2.081,0,0,1-2.079-2.079v-5.489a2.081,2.081,0,0,1,2.079-2.079H-98.7a2.081,2.081,0,0,1,2.079,2.079v5.489A2.081,2.081,0,0,1-98.7-54.027Zm-12.252-2.619H-99.24v-4.409h-11.712Z" transform="translate(113.57 63.673)" fill="#154481"/>
        </g>
        <g id="g2131" transform="translate(24.399 -0.056)">
          <path id="path2133" d="M29.279-75.238H-8.691A1.309,1.309,0,0,1-10-76.547V-100.66a1.309,1.309,0,0,1,1.309-1.309,1.309,1.309,0,0,1,1.309,1.309v22.8H27.97v-35.318l-35.317-.033-.034,6.6A1.309,1.309,0,0,1-8.691-105.3,1.309,1.309,0,0,1-10-106.609v-6.565a2.656,2.656,0,0,1,2.653-2.653H27.936a2.655,2.655,0,0,1,2.652,2.652v36.627A1.309,1.309,0,0,1,29.279-75.238Z" transform="translate(10 115.826)" fill="#154481"/>
        </g>
        <g id="g2135" transform="translate(38.85 -0.056)">
          <path id="path2137" d="M-43.311-10h9.066a1.309,1.309,0,0,1,1.309,1.309V1.392A2.111,2.111,0,0,1-35.043,3.5,2.117,2.117,0,0,1-36,3.268l-2.773-1.421L-41.55,3.268a2.117,2.117,0,0,1-.961.233A2.111,2.111,0,0,1-44.62,1.392V-8.691A1.309,1.309,0,0,1-43.311-10Zm7.757,2.619H-42V.556L-39.739-.6a2.144,2.144,0,0,1,1.922,0l2.263,1.16Z" transform="translate(44.62 10)" fill="#154481"/>
        </g>
        <g id="g2139" transform="translate(36.218 24.501)">
          <path id="path2141" d="M-98.7-54.027H-111.49a2.081,2.081,0,0,1-2.079-2.079v-5.489a2.081,2.081,0,0,1,2.079-2.079H-98.7a2.081,2.081,0,0,1,2.079,2.079v5.489A2.081,2.081,0,0,1-98.7-54.027Zm-12.252-2.619h11.712v-4.409H-110.95Z" transform="translate(113.569 63.673)" fill="#154481"/>
        </g>
        <g id="g2143" transform="translate(5.414 37.914)">
          <path id="path2145" d="M-260.707-259.4h-37.97a1.309,1.309,0,0,1-1.309-1.309v-36.626a2.656,2.656,0,0,1,2.653-2.653h36.626a1.309,1.309,0,0,1,1.309,1.309v37.97A1.309,1.309,0,0,1-260.707-259.4Zm-36.659-2.619h35.35v-35.351h-35.317Z" transform="translate(299.986 299.985)" fill="#154481"/>
        </g>
        <g id="g2147" transform="translate(19.866 37.914)">
          <path id="path2149" d="M-43.311-10h9.066a1.309,1.309,0,0,1,1.309,1.309V1.392A2.111,2.111,0,0,1-35.044,3.5,2.117,2.117,0,0,1-36,3.268l-2.773-1.421L-41.55,3.268a2.117,2.117,0,0,1-.961.233A2.111,2.111,0,0,1-44.62,1.392V-8.691A1.309,1.309,0,0,1-43.311-10Zm7.756,2.619H-42V.556L-39.739-.6a2.144,2.144,0,0,1,1.923,0L-35.554.556Z" transform="translate(44.62 10)" fill="#154481"/>
        </g>
        <g id="g2151" transform="translate(17.233 62.472)">
          <path id="path2153" d="M-98.7-54.027H-111.49a2.081,2.081,0,0,1-2.079-2.079v-5.489a2.081,2.081,0,0,1,2.079-2.079H-98.7a2.081,2.081,0,0,1,2.079,2.079v5.489A2.081,2.081,0,0,1-98.7-54.027Zm-12.252-2.619h11.712v-4.409H-110.95Z" transform="translate(113.569 63.673)" fill="#154481"/>
        </g>
        <g id="g2155" transform="translate(-0.039 75.884)">
          <path id="path2157" d="M-580.824-41.167h-85.555a1.956,1.956,0,0,1-1.954-1.954v-3.8a1.956,1.956,0,0,1,1.954-1.954h85.555a1.956,1.956,0,0,1,1.954,1.954v3.8A1.956,1.956,0,0,1-580.824-41.167Zm-84.89-2.619h84.225v-2.472h-84.225Z" transform="translate(668.333 48.876)" fill="#154481"/>
        </g>
        <g id="g2159" transform="translate(75.924 80.975)">
          <path id="path2161" d="M-40.742-46.2h-3.809a2.332,2.332,0,0,1-2.329-2.329V-53.36a1.309,1.309,0,0,1,1.309-1.309h5.849a1.309,1.309,0,0,1,1.309,1.309v4.829A2.332,2.332,0,0,1-40.742-46.2Zm-3.52-2.619h3.23v-3.23h-3.23Z" transform="translate(46.88 54.669)" fill="#154481"/>
        </g>
        <g id="g2163" transform="translate(4.995 80.975)">
          <path id="path2165" d="M-40.742-46.2h-3.809a2.332,2.332,0,0,1-2.329-2.329V-53.36a1.309,1.309,0,0,1,1.309-1.309h5.849a1.309,1.309,0,0,1,1.309,1.309v4.829A2.332,2.332,0,0,1-40.742-46.2Zm-3.52-2.619h3.23v-3.23h-3.23Z" transform="translate(46.88 54.669)" fill="#154481"/>
        </g>
      </g>
    </g>
  </g>
</svg>
