<?xml version="1.0" encoding="UTF-8"?>
<svg id="Layer_1" data-name="Layer 1" xmlns="http://www.w3.org/2000/svg" version="1.1" viewBox="0 0 128 128">
  <defs>
    <style>
      .cls-1 {
        fill: #154481;
      }

      .cls-1, .cls-2 {
        stroke-width: 0px;
      }

      .cls-2 {
        fill: #f9ce3f;
      }
    </style>
  </defs>
  <path class="cls-2" d="M37.9,11.1l-3.9,3.4v39.1l8.9,3.5,4,10.7c.4,1.2-3.6,8.2-4.4,9l-8.5,2.8v7.9l3.9,1.9h19.1l9,8.1,9-7.9,20.5-.4,2.4-4.5V14.7l-3.6-3.6h-56.5Z"/>
  <path class="cls-1" d="M121,104.5h-3v-3.3c-.6.2-1.3.3-1.9.3h-.1c-.7,0-1.3-.1-1.9-.3v3.3H14v-60c0-1.1.9-2,2-2h12v-4h-12c-3.3,0-6,2.7-6,6v60h-3c-3.9,0-7,3.1-7,7s3.1,7,7,7h114c3.9,0,7-3.1,7-7s-3.1-7-7-7h0ZM121,114.5H7c-1.7,0-3-1.3-3-3s1.3-3,3-3h114c1.7,0,3,1.3,3,3s-1.3,3-3,3h0Z"/>
  <path class="cls-1" d="M44,27.5h26c1.1,0,2-.9,2-2s-.9-2-2-2h-26c-1.1,0-2,.9-2,2s.9,2,2,2Z"/>
  <path class="cls-1" d="M44,35.5h44c1.1,0,2-.9,2-2s-.9-2-2-2h-44c-1.1,0-2,.9-2,2s.9,2,2,2Z"/>
  <path class="cls-1" d="M44,43.5h16c1.1,0,2-.9,2-2s-.9-2-2-2h-16c-1.1,0-2,.9-2,2s.9,2,2,2Z"/>
  <path class="cls-1" d="M88,39.5h-20c-1.1,0-2,.9-2,2s.9,2,2,2h20c1.1,0,2-.9,2-2s-.9-2-2-2Z"/>
  <path class="cls-1" d="M111.1,81.2l2.9,14.7c.2.9,1,1.6,2,1.6h.1c1,0,1.8-.7,2-1.6l2.9-14.7c1-4.3,1.5-8.7,1.5-13.1v-.2c.4-.4.6-.9.6-1.4V26.5c0-3.9-3.1-7-7-7s-7,3.1-7,7v40c0,.5.2,1.1.6,1.4v.2c0,4.4.5,8.8,1.5,13.1ZM117,80.4l-1,5.1-1-5.1c-.9-3.9-1.4-7.9-1.4-11.9h4.7c0,4-.5,8-1.4,11.9h0ZM113,26.5c0-1.7,1.3-3,3-3s3,1.3,3,3v3h-6v-3ZM113,33.5h6v31h-6v-31Z"/>
  <path class="cls-1" d="M34,85.5c-.7,0-1.3,0-2-.1h0c0,3.4,2.7,6.1,6,6.1h18.2l8.4,8.4c.8.8,2,.8,2.8,0,0,0,0,0,0,0l8.4-8.4h18.2c3.3,0,6-2.7,6-6V15.5c0-3.3-2.7-6-6-6h-56c-3.3,0-6,2.7-6,6v32.1c1.3-.1,2.7-.1,4,0V15.5c0-1.1.9-2,2-2h56c1.1,0,2,.9,2,2v70c0,1.1-.9,2-2,2h-19c-.5,0-1,.2-1.4.6l-7.6,7.6-7.6-7.6c-.4-.4-.9-.6-1.4-.6h-19c-1.1,0-2-.9-2-2h0c-.7,0-1.3,0-2,0Z"/>
  <path class="cls-1" d="M88,51.5c1.1,0,2-.9,2-2s-.9-2-2-2h-44c-1,0-1.9.8-2,1.8,1.3.6,2.5,1.3,3.6,2.2h42.4Z"/>
  <path class="cls-1" d="M19,66.5c0,8.3,6.7,15,15,15s15-6.7,15-15-6.7-15-15-15c-8.3,0-15,6.7-15,15ZM34,55.5c6.1,0,11,4.9,11,11s-4.9,11-11,11-11-4.9-11-11c0-6.1,4.9-11,11-11Z"/>
  <path class="cls-1" d="M84.4,71.1c-.7.9-2,1.2-3,.6-2.2-.7-4.1-.6-5.5.3-1.1.8-1.8,2-1.9,3.3,0,1.1.7,2.1,1.8,2.1h0c0,0,.1,0,.2,0,1,0,1.9-.8,2-1.9,0,0,0-.2.2-.3,0,0,.5-.3,2,.2,2.4,1,5.1.4,6.8-1.4.6-.5.8-.6.9-.6,1.1,0,2-.8,2.1-1.9s-.8-2-1.9-2.1c0,0,0,0,0,0-1.4,0-2.7.6-3.7,1.6Z"/>
  <path class="cls-1" d="M30.5,71.3c.8.8,2,.8,2.8,0,0,0,0,0,0,0l6.8-6.8c.8-.8.8-2,0-2.8s-2-.8-2.8,0c0,0,0,0,0,0l-5.4,5.4-1.3-1.3c-.8-.8-2-.8-2.8,0-.8.8-.8,2,0,2.8l2.7,2.7Z"/>
  <path class="cls-1" d="M88,59.5c1.1,0,2-.9,2-2s-.9-2-2-2h-38.5c.9,1.2,1.6,2.6,2.2,4h36.4Z"/>
</svg>