<svg xmlns="http://www.w3.org/2000/svg" width="20.933" height="22.836" viewBox="0 0 20.933 22.836">
  <g id="share" transform="translate(0.001 0.001)">
    <path id="Trazado_3646" data-name="Trazado 3646" d="M320.853,19.092A3.092,3.092,0,1,1,317.76,16,3.092,3.092,0,0,1,320.853,19.092Zm0,0" transform="translate(-300.634 -15.287)" fill="#364b66"/>
    <path id="Trazado_3647" data-name="Trazado 3647" d="M302.474,7.612a3.806,3.806,0,1,1,3.806-3.806A3.81,3.81,0,0,1,302.474,7.612Zm0-6.185a2.379,2.379,0,1,0,2.379,2.379A2.381,2.381,0,0,0,302.474,1.427Zm0,0" transform="translate(-285.347 -0.001)" fill="#364b66"/>
    <path id="Trazado_3648" data-name="Trazado 3648" d="M320.853,360.425a3.092,3.092,0,1,1-3.092-3.092A3.092,3.092,0,0,1,320.853,360.425Zm0,0" transform="translate(-300.634 -341.395)" fill="#364b66"/>
    <path id="Trazado_3649" data-name="Trazado 3649" d="M302.474,348.944a3.806,3.806,0,1,1,3.806-3.806A3.81,3.81,0,0,1,302.474,348.944Zm0-6.185a2.379,2.379,0,1,0,2.379,2.379A2.381,2.381,0,0,0,302.474,342.759Zm0,0" transform="translate(-285.347 -326.108)" fill="#364b66"/>
    <path id="Trazado_3650" data-name="Trazado 3650" d="M22.185,189.76a3.092,3.092,0,1,1-3.093-3.092A3.092,3.092,0,0,1,22.185,189.76Zm0,0" transform="translate(-15.287 -178.343)" fill="#364b66"/>
    <path id="Trazado_3651" data-name="Trazado 3651" d="M3.806,178.28a3.806,3.806,0,1,1,3.806-3.806A3.81,3.81,0,0,1,3.806,178.28Zm0-6.185a2.379,2.379,0,1,0,2.379,2.379A2.381,2.381,0,0,0,3.806,172.1Zm0,0" transform="translate(-0.001 -163.056)" fill="#364b66"/>
    <path id="Trazado_3652" data-name="Trazado 3652" d="M115.3,97.152a.952.952,0,0,1-.472-1.779l8.829-5.033a.952.952,0,1,1,.942,1.654l-8.829,5.033A.945.945,0,0,1,115.3,97.152Zm0,0" transform="translate(-109.249 -86.191)" fill="#364b66"/>
    <path id="Trazado_3653" data-name="Trazado 3653" d="M124.151,273.156a.946.946,0,0,1-.47-.125L114.851,268a.952.952,0,0,1,.942-1.654l8.829,5.033a.952.952,0,0,1-.472,1.779Zm0,0" transform="translate(-109.27 -254.345)" fill="#364b66"/>
  </g>
</svg>
