<svg xmlns="http://www.w3.org/2000/svg" width="13" height="17.054" viewBox="0 0 13 17.054">
  <g id="sort" transform="translate(26.666 -0.003)">
    <g id="Grupo_97" data-name="Grupo 97" transform="translate(-26.666 0.003)">
      <g id="Grupo_96" data-name="Grupo 96" transform="translate(0 0)">
        <path id="Trazado_2649" data-name="Trazado 2649" d="M220.233,3.052,217.391.21h0q-.025-.025-.052-.047l-.025-.019-.031-.022L217.252.1l-.029-.017L217.191.07,217.16.056l-.032-.012-.034-.012-.032-.008-.035-.009-.038-.006-.031,0a.715.715,0,0,0-.14,0l-.031,0-.038.006-.035.009-.032.008-.034.012-.032.012-.031.014-.032.016L216.525.1l-.031.019-.031.022-.025.019c-.018.015-.035.03-.052.047h0l-2.843,2.843a.711.711,0,0,0,1.005,1.005l1.63-1.629v8.234a.711.711,0,1,0,1.421,0V2.428l1.629,1.629a.711.711,0,1,0,1.005-1.005Z" transform="translate(-207.441 -0.001)" fill="#364b66"/>
        <path id="Trazado_2650" data-name="Trazado 2650" d="M91.227,177.982l-1.629,1.63v-8.234a.711.711,0,1,0-1.421,0v8.234l-1.63-1.63a.711.711,0,0,0-1.005,1.005l2.843,2.843h0c.016.016.034.032.052.047l.025.019.03.022.031.019.029.017.032.016.031.014.032.012.034.012.032.008.035.009.038.006.031,0a.716.716,0,0,0,.14,0l.031,0,.038-.006.035-.009.032-.008.034-.012.032-.012.031-.014.032-.016.029-.017.031-.019.03-.022.025-.019c.018-.015.035-.03.051-.046h0l2.843-2.843a.711.711,0,1,0-1.005-1.005Z" transform="translate(-85.334 -164.983)" fill="#364b66"/>
      </g>
    </g>
  </g>
</svg>
