<svg id="clock_2_" data-name="clock (2)" xmlns="http://www.w3.org/2000/svg" width="20.272" height="20.272" viewBox="0 0 20.272 20.272">
  <path id="Trazado_10" data-name="Trazado 10" d="M20.929,15.538,18.1,13.418V9.1a.785.785,0,1,0-1.57,0V13.81a.784.784,0,0,0,.314.628l3.14,2.355a.785.785,0,0,0,.942-1.256Z" transform="translate(-7.181 -3.612)" fill="#154481"/>
  <path id="Trazado_11" data-name="Trazado 11" d="M10.136,0A10.136,10.136,0,1,0,20.272,10.136,10.147,10.147,0,0,0,10.136,0Zm0,18.7A8.566,8.566,0,1,1,18.7,10.136,8.576,8.576,0,0,1,10.136,18.7Z" fill="#154481"/>
</svg>
