<svg xmlns="http://www.w3.org/2000/svg" width="12.394" height="14.102" viewBox="0 0 12.394 14.102">
  <g id="trash-can" transform="translate(-31)">
    <g id="Grupo_99" data-name="Grupo 99" transform="translate(31)">
      <g id="Grupo_98" data-name="Grupo 98">
        <path id="Trazado_2652" data-name="Trazado 2652" d="M42.155,1.653H39.7L39.43.847A1.238,1.238,0,0,0,38.254,0H36.14a1.239,1.239,0,0,0-1.176.847l-.268.805H32.239A1.241,1.241,0,0,0,31,2.892v.826c0,.46.414.413.859.413H42.981a.413.413,0,0,0,.413-.413V2.892A1.241,1.241,0,0,0,42.155,1.653Zm-6.588,0,.181-.544A.413.413,0,0,1,36.14.826h2.114a.412.412,0,0,1,.392.282l.181.544Z" transform="translate(-31)" fill="#d91433"/>
      </g>
    </g>
    <g id="Grupo_101" data-name="Grupo 101" transform="translate(31.927 5.013)">
      <g id="Grupo_100" data-name="Grupo 100">
        <path id="Trazado_2653" data-name="Trazado 2653" d="M64.666,182l.659,7.962a1.233,1.233,0,0,0,1.234,1.127h6.754a1.234,1.234,0,0,0,1.235-1.131L75.206,182Zm3.2,7.023a.413.413,0,0,1-.826,0v-5.784a.413.413,0,0,1,.826,0Zm2.479,0a.413.413,0,0,1-.826,0v-5.784a.413.413,0,0,1,.826,0Zm2.479,0a.413.413,0,0,1-.826,0v-5.784a.413.413,0,1,1,.826,0Z" transform="translate(-64.666 -182)" fill="#d91433"/>
      </g>
    </g>
  </g>
</svg>
