<svg xmlns="http://www.w3.org/2000/svg" width="20.061" height="20.061" viewBox="0 0 20.061 20.061">
  <g id="Grupo_1762" data-name="Grupo 1762" transform="translate(-1386.516 -963.008)">
    <path id="selection-box" d="M7.019,18.322a.643.643,0,0,1-.643.643H4.607A2.359,2.359,0,0,1,2.25,16.608V14.923a.643.643,0,0,1,1.286,0v1.684a1.073,1.073,0,0,0,1.071,1.071H6.376A.643.643,0,0,1,7.019,18.322ZM6.376,2.25H4.607A2.359,2.359,0,0,0,2.25,4.607V6.4a.643.643,0,1,0,1.286,0V4.607A1.073,1.073,0,0,1,4.607,3.536H6.376a.643.643,0,0,0,0-1.286Zm10.231,0h-1.8a.643.643,0,0,0,0,1.286h1.8a1.073,1.073,0,0,1,1.071,1.071v1.6a.643.643,0,1,0,1.286,0v-1.6A2.36,2.36,0,0,0,16.608,2.25Zm1.714,11.992a.643.643,0,0,0-.643.643v1.723a1.073,1.073,0,0,1-1.071,1.071H14.978a.643.643,0,1,0,0,1.286h1.629a2.36,2.36,0,0,0,2.357-2.357V14.885A.643.643,0,0,0,18.322,14.242Zm-5.915,3.437H8.949a.643.643,0,1,0,0,1.286h3.458a.643.643,0,1,0,0-1.286ZM8.948,3.536h3.289a.643.643,0,0,0,0-1.286H8.948a.643.643,0,0,0,0,1.286ZM2.893,12.995a.643.643,0,0,0,.643-.643V8.97a.643.643,0,0,0-1.286,0v3.382A.643.643,0,0,0,2.893,12.995ZM18.322,8.136a.643.643,0,0,0-.643.643v3.535a.643.643,0,1,0,1.286,0V8.779A.643.643,0,0,0,18.322,8.136Z" transform="translate(1387.611 960.758)" fill="#154481"/>
    <path id="selection-box-2" data-name="selection-box" d="M7.019,18.322a.643.643,0,0,1-.643.643H4.607A2.359,2.359,0,0,1,2.25,16.608V14.923a.643.643,0,0,1,1.286,0v1.684a1.073,1.073,0,0,0,1.071,1.071H6.376A.643.643,0,0,1,7.019,18.322ZM6.376,2.25H4.607A2.359,2.359,0,0,0,2.25,4.607V6.4a.643.643,0,1,0,1.286,0V4.607A1.073,1.073,0,0,1,4.607,3.536H6.376a.643.643,0,0,0,0-1.286ZM18.322,14.242a.643.643,0,0,0-.643.643v1.723a1.073,1.073,0,0,1-1.071,1.071H14.978a.643.643,0,1,0,0,1.286h1.629a2.36,2.36,0,0,0,2.357-2.357V14.885A.643.643,0,0,0,18.322,14.242Zm-5.915,3.437H8.949a.643.643,0,1,0,0,1.286h3.458a.643.643,0,1,0,0-1.286ZM2.893,12.995a.643.643,0,0,0,.643-.643V8.97a.643.643,0,0,0-1.286,0v3.382A.643.643,0,0,0,2.893,12.995Z" transform="translate(1384.266 964.103)" fill="#154481"/>
  </g>
</svg>
