<svg xmlns="http://www.w3.org/2000/svg" width="26.588" height="29.703" viewBox="0 0 26.588 29.703">
  <g id="usuario" transform="translate(-24.165)">
    <g id="Grupo_933" data-name="Grupo 933" transform="translate(29.749)">
      <g id="Grupo_932" data-name="Grupo 932">
        <path id="Trazado_3227" data-name="Trazado 3227" d="M118.5,0a7.712,7.712,0,1,0,7.712,7.712A7.733,7.733,0,0,0,118.5,0Z" transform="translate(-110.791)" fill="#fff"/>
      </g>
    </g>
    <g id="Grupo_935" data-name="Grupo 935" transform="translate(24.165 15.976)">
      <g id="Grupo_934" data-name="Grupo 934">
        <path id="Trazado_3228" data-name="Trazado 3228" d="M50.7,253.452a7.19,7.19,0,0,0-.775-1.414,9.586,9.586,0,0,0-6.634-4.176,1.42,1.42,0,0,0-.977.236,8.221,8.221,0,0,1-9.7,0,1.264,1.264,0,0,0-.977-.236A9.516,9.516,0,0,0,25,252.037a8.289,8.289,0,0,0-.775,1.414.716.716,0,0,0,.034.64,13.436,13.436,0,0,0,.909,1.347,12.8,12.8,0,0,0,1.549,1.751,20.177,20.177,0,0,0,1.549,1.347,15.358,15.358,0,0,0,18.32,0,14.806,14.806,0,0,0,1.549-1.347,15.541,15.541,0,0,0,1.549-1.751,11.81,11.81,0,0,0,.909-1.347A.575.575,0,0,0,50.7,253.452Z" transform="translate(-24.165 -247.841)" fill="#fff"/>
      </g>
    </g>
  </g>
</svg>
