<svg xmlns="http://www.w3.org/2000/svg" width="26" height="16.572" viewBox="0 0 26 16.572">
  <g id="view" transform="translate(0 -92.835)">
    <path id="Trazado_10" data-name="Trazado 10" d="M25.835,100.615c-.232-.318-5.767-7.78-12.835-7.78S.4,100.3.165,100.615a.858.858,0,0,0,0,1.012c.232.318,5.767,7.78,12.835,7.78s12.6-7.462,12.835-7.78A.857.857,0,0,0,25.835,100.615ZM13,107.692c-5.207,0-9.716-4.953-11.051-6.572C3.282,99.5,7.782,94.549,13,94.549s9.715,4.952,11.051,6.572C22.718,102.742,18.218,107.692,13,107.692Z" fill="#154481"/>
    <path id="Trazado_11" data-name="Trazado 11" d="M159.859,154.725A5.146,5.146,0,1,0,165,159.871,5.148,5.148,0,0,0,159.859,154.725Zm0,8.577a3.431,3.431,0,1,1,3.425-3.431A3.432,3.432,0,0,1,159.859,163.3Z" transform="translate(-146.859 -58.751)" fill="#154481"/>
  </g>
</svg>
