<?xml version="1.0" encoding="UTF-8"?>
<svg id="Capa_1" data-name="Capa 1" xmlns="http://www.w3.org/2000/svg" version="1.1" viewBox="0 0 16 16">
  <defs>
    <style>
      .cls-1 {
        fill: #072142;
      }

      .cls-1, .cls-2 {
        stroke-width: 0px;
      }

      .cls-2 {
        fill: #fff;
      }
    </style>
  </defs>
  <g id="Capa_1-2" data-name="Capa 1" focusable="false">
    <g id="Trazado_1662" data-name="Trazado 1662">
      <path class="cls-2" d="M8,15.7c-1,0-2.1-.2-3-.6-.9-.4-1.7-.9-2.5-1.7-.7-.7-1.3-1.5-1.7-2.5-.4-1-.6-2-.6-3s.2-2.1.6-3c.4-.9.9-1.7,1.7-2.5.8-.8,1.5-1.3,2.5-1.7C6,.3,7,0,8,0s2.1.2,3,.6c.9.4,1.7.9,2.5,1.7.7.7,1.3,1.5,1.7,2.5s.6,2,.6,3-.2,2.1-.6,3c-.4.9-.9,1.7-1.7,2.5s-1.5,1.3-2.5,1.7-2,.6-3,.6Z"/>
      <path class="cls-2" d="M8,.4c-1,0-2,.2-2.9.6s-1.7.9-2.4,1.6c-.7.7-1.2,1.5-1.6,2.4s-.6,1.9-.6,2.9.2,2,.6,2.9c.4.9.9,1.7,1.6,2.4s1.5,1.2,2.4,1.6c.9.4,1.9.6,2.9.6s2-.2,2.9-.6c.9-.4,1.7-.9,2.4-1.6.7-.7,1.2-1.5,1.6-2.4.4-.9.6-1.9.6-2.9s-.2-2-.6-2.9c-.4-.9-.9-1.7-1.6-2.4s-1.5-1.2-2.4-1.6-1.9-.6-2.9-.6M8,0C12.4,0,15.9,3.5,15.9,7.9s-3.5,7.9-7.9,7.9S0,12.3,0,7.9,3.6,0,8,0Z"/>
    </g>
  </g>
  <g>
    <path class="cls-1" d="M10.5,8.6s-.7-.4-.9-.4c0,0-.1,0-.2,0,0,0-.2,0-.2.1,0,.1-.3.4-.4.4,0,0,0,0,0,0s-.1,0-.1,0c-.8-.3-1.3-1.1-1.4-1.3,0,0,0,0,0,0,0,0,0,0,0,0,0,0,0,0,.1-.1,0,0,0,0,0,0,0,0,0-.1.1-.2h0c0-.2,0-.3,0-.3,0,0-.3-.8-.3-.8,0-.2-.2-.3-.3-.3s0,0,0,0c0,0-.4,0-.6.2-.2.1-.5.4-.5,1s.3,1,.5,1.2c0,0,0,0,0,0,.6.8,1.3,1.4,2,1.7.7.3,1,.3,1.2.3h0c0,0,.1,0,.2,0h0c.2,0,.8-.3.9-.6,0-.3.1-.5,0-.6,0,0-.1-.1-.2-.1Z"/>
    <path class="cls-1" d="M8.2,3.1c-2.6,0-4.8,2.1-4.8,4.7s.2,1.7.7,2.4l-.8,2.4s0,0,0,.1c0,0,0,0,0,0s0,0,0,0l2.5-.8c.7.4,1.5.6,2.3.6,2.6,0,4.8-2.1,4.8-4.7s-2.1-4.7-4.8-4.7ZM8.2,11.5c-.7,0-1.5-.2-2.1-.6,0,0,0,0,0,0s0,0,0,0l-1.3.4.4-1.2s0,0,0-.1c-.5-.6-.7-1.4-.7-2.2,0-2.1,1.7-3.7,3.8-3.7s3.8,1.7,3.8,3.7c0,2.1-1.7,3.7-3.8,3.7Z"/>
  </g>
</svg>